<svg xmlns="http://www.w3.org/2000/svg" version="1.1" xmlns:xlink="http://www.w3.org/1999/xlink" xmlns:svgjs="http://svgjs.dev/svgjs" width="1440" height="560" preserveAspectRatio="none" viewBox="0 0 1440 560"><g mask="url(&quot;#SvgjsMask1022&quot;)" fill="none"><path d="M-48.71 358.32L-48.71 358.32" stroke="#132e65" stroke-width="1.5"></path><path d="M-48.71 358.32L50.14 399.37" stroke="#132e65" stroke-width="1.5"></path><path d="M-48.71 358.32L-75.01 518.61" stroke="#132e65" stroke-width="1.5"></path><path d="M-48.71 358.32L106.11 510.63" stroke="#132e65" stroke-width="1.5"></path><path d="M-48.71 358.32L206.03 400.95" stroke="#132e65" stroke-width="1.5"></path><path d="M-48.71 358.32L217.91 551.34" stroke="#132e65" stroke-width="1.5"></path><path d="M-75.01 518.61L-75.01 518.61" stroke="#132e65" stroke-width="1.5"></path><path d="M-75.01 518.61L50.14 399.37" stroke="#132e65" stroke-width="1.5"></path><path d="M-75.01 518.61L106.11 510.63" stroke="#132e65" stroke-width="1.5"></path><path d="M-75.01 518.61L-81.07 701.46" stroke="#132e65" stroke-width="1.5"></path><path d="M-75.01 518.61L82.81 695.18" stroke="#132e65" stroke-width="1.5"></path><path d="M-81.07 701.46L-81.07 701.46" stroke="#132e65" stroke-width="1.5"></path><path d="M-81.07 701.46L82.81 695.18" stroke="#132e65" stroke-width="1.5"></path><path d="M50.14 399.37L50.14 399.37" stroke="#132e65" stroke-width="1.5"></path><path d="M50.14 399.37L106.11 510.63" stroke="#132e65" stroke-width="1.5"></path><path d="M50.14 399.37L206.03 400.95" stroke="#132e65" stroke-width="1.5"></path><path d="M50.14 399.37L217.91 551.34" stroke="#132e65" stroke-width="1.5"></path><path d="M50.14 399.37L82.81 695.18" stroke="#132e65" stroke-width="1.5"></path><path d="M106.11 510.63L106.11 510.63" stroke="#132e65" stroke-width="1.5"></path><path d="M106.11 510.63L217.91 551.34" stroke="#132e65" stroke-width="1.5"></path><path d="M106.11 510.63L206.03 400.95" stroke="#132e65" stroke-width="1.5"></path><path d="M106.11 510.63L82.81 695.18" stroke="#132e65" stroke-width="1.5"></path><path d="M82.81 695.18L82.81 695.18" stroke="#132e65" stroke-width="1.5"></path><path d="M82.81 695.18L192.88 679.73" stroke="#132e65" stroke-width="1.5"></path><path d="M82.81 695.18L217.91 551.34" stroke="#132e65" stroke-width="1.5"></path><path d="M206.03 400.95L206.03 400.95" stroke="#132e65" stroke-width="1.5"></path><path d="M206.03 400.95L217.91 551.34" stroke="#132e65" stroke-width="1.5"></path><path d="M217.91 551.34L217.91 551.34" stroke="#132e65" stroke-width="1.5"></path><path d="M217.91 551.34L192.88 679.73" stroke="#132e65" stroke-width="1.5"></path><path d="M217.91 551.34L367.29 518.28" stroke="#132e65" stroke-width="1.5"></path><path d="M192.88 679.73L192.88 679.73" stroke="#132e65" stroke-width="1.5"></path><path d="M386.89 409.29L386.89 409.29" stroke="#132e65" stroke-width="1.5"></path><path d="M386.89 409.29L367.29 518.28" stroke="#132e65" stroke-width="1.5"></path><path d="M386.89 409.29L521.33 361.67" stroke="#132e65" stroke-width="1.5"></path><path d="M367.29 518.28L367.29 518.28" stroke="#132e65" stroke-width="1.5"></path><path d="M367.29 518.28L369.25 660.63" stroke="#132e65" stroke-width="1.5"></path><path d="M367.29 518.28L545.02 515.35" stroke="#132e65" stroke-width="1.5"></path><path d="M367.29 518.28L206.03 400.95" stroke="#132e65" stroke-width="1.5"></path><path d="M369.25 660.63L369.25 660.63" stroke="#132e65" stroke-width="1.5"></path><path d="M369.25 660.63L501.54 687.18" stroke="#132e65" stroke-width="1.5"></path><path d="M369.25 660.63L192.88 679.73" stroke="#132e65" stroke-width="1.5"></path><path d="M369.25 660.63L217.91 551.34" stroke="#132e65" stroke-width="1.5"></path><path d="M369.25 660.63L545.02 515.35" stroke="#132e65" stroke-width="1.5"></path><path d="M369.25 660.63L386.89 409.29" stroke="#132e65" stroke-width="1.5"></path><path d="M521.33 361.67L521.33 361.67" stroke="#132e65" stroke-width="1.5"></path><path d="M521.33 361.67L660.32 402.98" stroke="#132e65" stroke-width="1.5"></path><path d="M521.33 361.67L545.02 515.35" stroke="#132e65" stroke-width="1.5"></path><path d="M521.33 361.67L367.29 518.28" stroke="#132e65" stroke-width="1.5"></path><path d="M521.33 361.67L688.65 551.69" stroke="#132e65" stroke-width="1.5"></path><path d="M545.02 515.35L545.02 515.35" stroke="#132e65" stroke-width="1.5"></path><path d="M545.02 515.35L688.65 551.69" stroke="#132e65" stroke-width="1.5"></path><path d="M501.54 687.18L501.54 687.18" stroke="#132e65" stroke-width="1.5"></path><path d="M501.54 687.18L674.74 697.33" stroke="#132e65" stroke-width="1.5"></path><path d="M501.54 687.18L545.02 515.35" stroke="#132e65" stroke-width="1.5"></path><path d="M501.54 687.18L367.29 518.28" stroke="#132e65" stroke-width="1.5"></path><path d="M501.54 687.18L688.65 551.69" stroke="#132e65" stroke-width="1.5"></path><path d="M660.32 402.98L660.32 402.98" stroke="#132e65" stroke-width="1.5"></path><path d="M660.32 402.98L688.65 551.69" stroke="#132e65" stroke-width="1.5"></path><path d="M660.32 402.98L545.02 515.35" stroke="#132e65" stroke-width="1.5"></path><path d="M660.32 402.98L802.02 508.77" stroke="#132e65" stroke-width="1.5"></path><path d="M660.32 402.98L853.13 402.84" stroke="#132e65" stroke-width="1.5"></path><path d="M660.32 402.98L851.75 243.2" stroke="#132e65" stroke-width="1.5"></path><path d="M688.65 551.69L688.65 551.69" stroke="#132e65" stroke-width="1.5"></path><path d="M688.65 551.69L802.02 508.77" stroke="#132e65" stroke-width="1.5"></path><path d="M688.65 551.69L674.74 697.33" stroke="#132e65" stroke-width="1.5"></path><path d="M688.65 551.69L853.13 402.84" stroke="#132e65" stroke-width="1.5"></path><path d="M674.74 697.33L674.74 697.33" stroke="#132e65" stroke-width="1.5"></path><path d="M674.74 697.33L545.02 515.35" stroke="#132e65" stroke-width="1.5"></path><path d="M674.74 697.33L802.02 508.77" stroke="#132e65" stroke-width="1.5"></path><path d="M674.74 697.33L957.97 699.82" stroke="#132e65" stroke-width="1.5"></path><path d="M851.75 243.2L851.75 243.2" stroke="#132e65" stroke-width="1.5"></path><path d="M851.75 243.2L963.7 220.4" stroke="#132e65" stroke-width="1.5"></path><path d="M851.75 243.2L853.13 402.84" stroke="#132e65" stroke-width="1.5"></path><path d="M851.75 243.2L963.13 71.4" stroke="#132e65" stroke-width="1.5"></path><path d="M851.75 243.2L1004.07 403.65" stroke="#132e65" stroke-width="1.5"></path><path d="M853.13 402.84L853.13 402.84" stroke="#132e65" stroke-width="1.5"></path><path d="M853.13 402.84L802.02 508.77" stroke="#132e65" stroke-width="1.5"></path><path d="M853.13 402.84L1004.07 403.65" stroke="#132e65" stroke-width="1.5"></path><path d="M802.02 508.77L802.02 508.77" stroke="#132e65" stroke-width="1.5"></path><path d="M802.02 508.77L999.18 543.12" stroke="#132e65" stroke-width="1.5"></path><path d="M989.02 -109.89L989.02 -109.89" stroke="#132e65" stroke-width="1.5"></path><path d="M989.02 -109.89L1159.65 -106.62" stroke="#132e65" stroke-width="1.5"></path><path d="M989.02 -109.89L963.13 71.4" stroke="#132e65" stroke-width="1.5"></path><path d="M989.02 -109.89L1119.38 41.88" stroke="#132e65" stroke-width="1.5"></path><path d="M989.02 -109.89L1258.38 -73.97" stroke="#132e65" stroke-width="1.5"></path><path d="M963.13 71.4L963.13 71.4" stroke="#132e65" stroke-width="1.5"></path><path d="M963.13 71.4L963.7 220.4" stroke="#132e65" stroke-width="1.5"></path><path d="M963.13 71.4L1119.38 41.88" stroke="#132e65" stroke-width="1.5"></path><path d="M963.7 220.4L963.7 220.4" stroke="#132e65" stroke-width="1.5"></path><path d="M963.7 220.4L1004.07 403.65" stroke="#132e65" stroke-width="1.5"></path><path d="M1004.07 403.65L1004.07 403.65" stroke="#132e65" stroke-width="1.5"></path><path d="M1004.07 403.65L999.18 543.12" stroke="#132e65" stroke-width="1.5"></path><path d="M1004.07 403.65L1154.7 399.37" stroke="#132e65" stroke-width="1.5"></path><path d="M1004.07 403.65L1146.13 523.28" stroke="#132e65" stroke-width="1.5"></path><path d="M999.18 543.12L999.18 543.12" stroke="#132e65" stroke-width="1.5"></path><path d="M999.18 543.12L1146.13 523.28" stroke="#132e65" stroke-width="1.5"></path><path d="M999.18 543.12L957.97 699.82" stroke="#132e65" stroke-width="1.5"></path><path d="M999.18 543.12L853.13 402.84" stroke="#132e65" stroke-width="1.5"></path><path d="M957.97 699.82L957.97 699.82" stroke="#132e65" stroke-width="1.5"></path><path d="M957.97 699.82L802.02 508.77" stroke="#132e65" stroke-width="1.5"></path><path d="M1159.65 -106.62L1159.65 -106.62" stroke="#132e65" stroke-width="1.5"></path><path d="M1159.65 -106.62L1258.38 -73.97" stroke="#132e65" stroke-width="1.5"></path><path d="M1159.65 -106.62L1119.38 41.88" stroke="#132e65" stroke-width="1.5"></path><path d="M1119.38 41.88L1119.38 41.88" stroke="#132e65" stroke-width="1.5"></path><path d="M1119.38 41.88L1281.86 61.87" stroke="#132e65" stroke-width="1.5"></path><path d="M1119.38 41.88L1258.38 -73.97" stroke="#132e65" stroke-width="1.5"></path><path d="M1119.38 41.88L963.7 220.4" stroke="#132e65" stroke-width="1.5"></path><path d="M1154.7 399.37L1154.7 399.37" stroke="#132e65" stroke-width="1.5"></path><path d="M1154.7 399.37L1146.13 523.28" stroke="#132e65" stroke-width="1.5"></path><path d="M1154.7 399.37L1294.14 372.22" stroke="#132e65" stroke-width="1.5"></path><path d="M1146.13 523.28L1146.13 523.28" stroke="#132e65" stroke-width="1.5"></path><path d="M1146.13 523.28L1288.95 557.16" stroke="#132e65" stroke-width="1.5"></path><path d="M1146.13 523.28L1294.14 372.22" stroke="#132e65" stroke-width="1.5"></path><path d="M1146.13 523.28L1281.27 706.2" stroke="#132e65" stroke-width="1.5"></path><path d="M1258.38 -73.97L1258.38 -73.97" stroke="#132e65" stroke-width="1.5"></path><path d="M1258.38 -73.97L1281.86 61.87" stroke="#132e65" stroke-width="1.5"></path><path d="M1258.38 -73.97L1409.82 81.07" stroke="#132e65" stroke-width="1.5"></path><path d="M1281.86 61.87L1281.86 61.87" stroke="#132e65" stroke-width="1.5"></path><path d="M1281.86 61.87L1409.82 81.07" stroke="#132e65" stroke-width="1.5"></path><path d="M1281.86 61.87L1159.65 -106.62" stroke="#132e65" stroke-width="1.5"></path><path d="M1281.86 61.87L1421.85 231.29" stroke="#132e65" stroke-width="1.5"></path><path d="M1294.14 372.22L1294.14 372.22" stroke="#132e65" stroke-width="1.5"></path><path d="M1288.95 557.16L1288.95 557.16" stroke="#132e65" stroke-width="1.5"></path><path d="M1288.95 557.16L1435.01 541.37" stroke="#132e65" stroke-width="1.5"></path><path d="M1288.95 557.16L1281.27 706.2" stroke="#132e65" stroke-width="1.5"></path><path d="M1281.27 706.2L1281.27 706.2" stroke="#132e65" stroke-width="1.5"></path><path d="M1281.27 706.2L1406.38 695.02" stroke="#132e65" stroke-width="1.5"></path><path d="M1409.82 81.07L1409.82 81.07" stroke="#132e65" stroke-width="1.5"></path><path d="M1421.85 231.29L1421.85 231.29" stroke="#132e65" stroke-width="1.5"></path><path d="M1421.85 231.29L1546.9 208.34" stroke="#132e65" stroke-width="1.5"></path><path d="M1421.85 231.29L1455.95 353.78" stroke="#132e65" stroke-width="1.5"></path><path d="M1421.85 231.29L1409.82 81.07" stroke="#132e65" stroke-width="1.5"></path><path d="M1421.85 231.29L1294.14 372.22" stroke="#132e65" stroke-width="1.5"></path><path d="M1421.85 231.29L1592.85 339.83" stroke="#132e65" stroke-width="1.5"></path><path d="M1455.95 353.78L1455.95 353.78" stroke="#132e65" stroke-width="1.5"></path><path d="M1455.95 353.78L1592.85 339.83" stroke="#132e65" stroke-width="1.5"></path><path d="M1435.01 541.37L1435.01 541.37" stroke="#132e65" stroke-width="1.5"></path><path d="M1435.01 541.37L1566.51 516.3" stroke="#132e65" stroke-width="1.5"></path><path d="M1435.01 541.37L1406.38 695.02" stroke="#132e65" stroke-width="1.5"></path><path d="M1406.38 695.02L1406.38 695.02" stroke="#132e65" stroke-width="1.5"></path><path d="M1406.38 695.02L1576.49 703.75" stroke="#132e65" stroke-width="1.5"></path><path d="M1564.48 -103.15L1564.48 -103.15" stroke="#132e65" stroke-width="1.5"></path><path d="M1564.48 -103.15L1556.85 49.29" stroke="#132e65" stroke-width="1.5"></path><path d="M1564.48 -103.15L1409.82 81.07" stroke="#132e65" stroke-width="1.5"></path><path d="M1564.48 -103.15L1258.38 -73.97" stroke="#132e65" stroke-width="1.5"></path><path d="M1556.85 49.29L1556.85 49.29" stroke="#132e65" stroke-width="1.5"></path><path d="M1556.85 49.29L1409.82 81.07" stroke="#132e65" stroke-width="1.5"></path><path d="M1556.85 49.29L1546.9 208.34" stroke="#132e65" stroke-width="1.5"></path><path d="M1556.85 49.29L1421.85 231.29" stroke="#132e65" stroke-width="1.5"></path><path d="M1546.9 208.34L1546.9 208.34" stroke="#132e65" stroke-width="1.5"></path><path d="M1546.9 208.34L1592.85 339.83" stroke="#132e65" stroke-width="1.5"></path><path d="M1592.85 339.83L1592.85 339.83" stroke="#132e65" stroke-width="1.5"></path><path d="M1592.85 339.83L1566.51 516.3" stroke="#132e65" stroke-width="1.5"></path><path d="M1566.51 516.3L1566.51 516.3" stroke="#132e65" stroke-width="1.5"></path><path d="M1576.49 703.75L1576.49 703.75" stroke="#132e65" stroke-width="1.5"></path><path d="M1576.49 703.75L1566.51 516.3" stroke="#132e65" stroke-width="1.5"></path><circle r="5" cx="-48.71" cy="358.32" fill="#132e65"></circle><circle r="5" cx="-75.01" cy="518.61" fill="#132e65"></circle><circle r="5" cx="-81.07" cy="701.46" fill="#132e65"></circle><circle r="5" cx="50.14" cy="399.37" fill="#132e65"></circle><circle r="5" cx="106.11" cy="510.63" fill="#132e65"></circle><circle r="5" cx="82.81" cy="695.18" fill="#132e65"></circle><circle r="5" cx="206.03" cy="400.95" fill="#132e65"></circle><circle r="5" cx="217.91" cy="551.34" fill="#132e65"></circle><circle r="5" cx="192.88" cy="679.73" fill="#132e65"></circle><circle r="5" cx="386.89" cy="409.29" fill="#132e65"></circle><circle r="5" cx="367.29" cy="518.28" fill="#132e65"></circle><circle r="5" cx="369.25" cy="660.63" fill="#132e65"></circle><circle r="5" cx="521.33" cy="361.67" fill="#132e65"></circle><circle r="5" cx="545.02" cy="515.35" fill="#132e65"></circle><circle r="5" cx="501.54" cy="687.18" fill="#132e65"></circle><circle r="5" cx="660.32" cy="402.98" fill="#132e65"></circle><circle r="5" cx="688.65" cy="551.69" fill="#132e65"></circle><circle r="5" cx="674.74" cy="697.33" fill="#132e65"></circle><circle r="5" cx="851.75" cy="243.2" fill="#132e65"></circle><circle r="5" cx="853.13" cy="402.84" fill="#132e65"></circle><circle r="5" cx="802.02" cy="508.77" fill="#132e65"></circle><circle r="5" cx="989.02" cy="-109.89" fill="#132e65"></circle><circle r="5" cx="963.13" cy="71.4" fill="#132e65"></circle><circle r="5" cx="963.7" cy="220.4" fill="#132e65"></circle><circle r="5" cx="1004.07" cy="403.65" fill="#132e65"></circle><circle r="5" cx="999.18" cy="543.12" fill="#132e65"></circle><circle r="5" cx="957.97" cy="699.82" fill="#132e65"></circle><circle r="5" cx="1159.65" cy="-106.62" fill="#132e65"></circle><circle r="5" cx="1119.38" cy="41.88" fill="#132e65"></circle><circle r="5" cx="1154.7" cy="399.37" fill="#132e65"></circle><circle r="5" cx="1146.13" cy="523.28" fill="#132e65"></circle><circle r="5" cx="1258.38" cy="-73.97" fill="#132e65"></circle><circle r="5" cx="1281.86" cy="61.87" fill="#132e65"></circle><circle r="5" cx="1294.14" cy="372.22" fill="#132e65"></circle><circle r="5" cx="1288.95" cy="557.16" fill="#132e65"></circle><circle r="5" cx="1281.27" cy="706.2" fill="#132e65"></circle><circle r="5" cx="1409.82" cy="81.07" fill="#132e65"></circle><circle r="5" cx="1421.85" cy="231.29" fill="#132e65"></circle><circle r="5" cx="1455.95" cy="353.78" fill="#132e65"></circle><circle r="5" cx="1435.01" cy="541.37" fill="#132e65"></circle><circle r="5" cx="1406.38" cy="695.02" fill="#132e65"></circle><circle r="5" cx="1564.48" cy="-103.15" fill="#132e65"></circle><circle r="5" cx="1556.85" cy="49.29" fill="#132e65"></circle><circle r="5" cx="1546.9" cy="208.34" fill="#132e65"></circle><circle r="5" cx="1592.85" cy="339.83" fill="#132e65"></circle><circle r="5" cx="1566.51" cy="516.3" fill="#132e65"></circle><circle r="5" cx="1576.49" cy="703.75" fill="#132e65"></circle><path d="M-90.35 654.27L-90.35 654.27" stroke="hsl(228.5, 77.2%, 51.5%)" stroke-width="1.5"></path><path d="M-90.35 654.27L-94.55 509.99" stroke="hsl(228.5, 77.2%, 51.5%)" stroke-width="1.5"></path><path d="M-90.35 654.27L77.53 682.85" stroke="hsl(228.5, 77.2%, 51.5%)" stroke-width="1.5"></path><path d="M-90.35 654.27L108.71 511.03" stroke="hsl(228.5, 77.2%, 51.5%)" stroke-width="1.5"></path><path d="M77.53 682.85L77.53 682.85" stroke="hsl(228.5, 77.2%, 51.5%)" stroke-width="1.5"></path><path d="M77.53 682.85L191.21 666.97" stroke="hsl(228.5, 77.2%, 51.5%)" stroke-width="1.5"></path><path d="M77.53 682.85L108.71 511.03" stroke="hsl(228.5, 77.2%, 51.5%)" stroke-width="1.5"></path><path d="M77.53 682.85L-94.55 509.99" stroke="hsl(228.5, 77.2%, 51.5%)" stroke-width="1.5"></path><path d="M77.53 682.85L254.98 489.73" stroke="hsl(228.5, 77.2%, 51.5%)" stroke-width="1.5"></path><path d="M400.37 551.43L400.37 551.43" stroke="hsl(228.5, 77.2%, 51.5%)" stroke-width="1.5"></path><path d="M400.37 551.43L412.22 670.65" stroke="hsl(228.5, 77.2%, 51.5%)" stroke-width="1.5"></path><path d="M400.37 551.43L543.16 503.78" stroke="hsl(228.5, 77.2%, 51.5%)" stroke-width="1.5"></path><path d="M400.37 551.43L254.98 489.73" stroke="hsl(228.5, 77.2%, 51.5%)" stroke-width="1.5"></path><path d="M400.37 551.43L515.27 670.71" stroke="hsl(228.5, 77.2%, 51.5%)" stroke-width="1.5"></path><path d="M400.37 551.43L191.21 666.97" stroke="hsl(228.5, 77.2%, 51.5%)" stroke-width="1.5"></path><path d="M400.37 551.43L640.48 530.47" stroke="hsl(228.5, 77.2%, 51.5%)" stroke-width="1.5"></path><path d="M412.22 670.65L412.22 670.65" stroke="hsl(228.5, 77.2%, 51.5%)" stroke-width="1.5"></path><path d="M412.22 670.65L515.27 670.71" stroke="hsl(228.5, 77.2%, 51.5%)" stroke-width="1.5"></path><path d="M412.22 670.65L543.16 503.78" stroke="hsl(228.5, 77.2%, 51.5%)" stroke-width="1.5"></path><path d="M412.22 670.65L191.21 666.97" stroke="hsl(228.5, 77.2%, 51.5%)" stroke-width="1.5"></path><path d="M844.61 337.99L844.61 337.99" stroke="hsl(228.5, 77.2%, 51.5%)" stroke-width="1.5"></path><path d="M844.61 337.99L699.88 389.08" stroke="hsl(228.5, 77.2%, 51.5%)" stroke-width="1.5"></path><path d="M844.61 337.99L1000.27 375.44" stroke="hsl(228.5, 77.2%, 51.5%)" stroke-width="1.5"></path><path d="M844.61 337.99L952 495.2" stroke="hsl(228.5, 77.2%, 51.5%)" stroke-width="1.5"></path><path d="M844.61 337.99L795.5 525.11" stroke="hsl(228.5, 77.2%, 51.5%)" stroke-width="1.5"></path><path d="M952 495.2L952 495.2" stroke="hsl(228.5, 77.2%, 51.5%)" stroke-width="1.5"></path><path d="M952 495.2L1000.27 375.44" stroke="hsl(228.5, 77.2%, 51.5%)" stroke-width="1.5"></path><path d="M952 495.2L795.5 525.11" stroke="hsl(228.5, 77.2%, 51.5%)" stroke-width="1.5"></path><path d="M952 495.2L1109.19 551.59" stroke="hsl(228.5, 77.2%, 51.5%)" stroke-width="1.5"></path><path d="M1109.19 551.59L1109.19 551.59" stroke="hsl(228.5, 77.2%, 51.5%)" stroke-width="1.5"></path><path d="M1109.19 551.59L1251.85 545.37" stroke="hsl(228.5, 77.2%, 51.5%)" stroke-width="1.5"></path><path d="M1109.19 551.59L1100.76 706.64" stroke="hsl(228.5, 77.2%, 51.5%)" stroke-width="1.5"></path><path d="M1258.99 338.02L1258.99 338.02" stroke="hsl(228.5, 77.2%, 51.5%)" stroke-width="1.5"></path><path d="M1258.99 338.02L1246.92 235.14" stroke="hsl(228.5, 77.2%, 51.5%)" stroke-width="1.5"></path><path d="M1258.99 338.02L1112.14 343.46" stroke="hsl(228.5, 77.2%, 51.5%)" stroke-width="1.5"></path><path d="M1258.99 338.02L1111.96 219.73" stroke="hsl(228.5, 77.2%, 51.5%)" stroke-width="1.5"></path><path d="M1438.6 55.94L1438.6 55.94" stroke="hsl(228.5, 77.2%, 51.5%)" stroke-width="1.5"></path><path d="M1438.6 55.94L1546.24 41.8" stroke="hsl(228.5, 77.2%, 51.5%)" stroke-width="1.5"></path><path d="M1438.6 55.94L1444.35 -74.94" stroke="hsl(228.5, 77.2%, 51.5%)" stroke-width="1.5"></path><path d="M1438.6 55.94L1417.7 200.77" stroke="hsl(228.5, 77.2%, 51.5%)" stroke-width="1.5"></path><path d="M1438.6 55.94L1547.5 -79.8" stroke="hsl(228.5, 77.2%, 51.5%)" stroke-width="1.5"></path><path d="M1438.6 55.94L1300.01 -69.19" stroke="hsl(228.5, 77.2%, 51.5%)" stroke-width="1.5"></path><path d="M1455.58 347.13L1455.58 347.13" stroke="hsl(228.5, 77.2%, 51.5%)" stroke-width="1.5"></path><path d="M1455.58 347.13L1578.25 384.34" stroke="hsl(228.5, 77.2%, 51.5%)" stroke-width="1.5"></path><path d="M1455.58 347.13L1417.7 200.77" stroke="hsl(228.5, 77.2%, 51.5%)" stroke-width="1.5"></path><path d="M1455.58 347.13L1411.73 506.37" stroke="hsl(228.5, 77.2%, 51.5%)" stroke-width="1.5"></path><path d="M1455.58 347.13L1258.99 338.02" stroke="hsl(228.5, 77.2%, 51.5%)" stroke-width="1.5"></path><path d="M1455.58 347.13L1584.47 189.57" stroke="hsl(228.5, 77.2%, 51.5%)" stroke-width="1.5"></path><path d="M-94.55 509.99L-94.55 509.99" stroke="hsl(228.5, 77.2%, 51.5%)" stroke-width="1.5"></path><path d="M-94.55 509.99L108.71 511.03" stroke="hsl(228.5, 77.2%, 51.5%)" stroke-width="1.5"></path><path d="M-94.55 509.99L191.21 666.97" stroke="hsl(228.5, 77.2%, 51.5%)" stroke-width="1.5"></path><path d="M-94.55 509.99L254.98 489.73" stroke="hsl(228.5, 77.2%, 51.5%)" stroke-width="1.5"></path><path d="M108.71 511.03L108.71 511.03" stroke="hsl(228.5, 77.2%, 51.5%)" stroke-width="1.5"></path><path d="M108.71 511.03L254.98 489.73" stroke="hsl(228.5, 77.2%, 51.5%)" stroke-width="1.5"></path><path d="M108.71 511.03L191.21 666.97" stroke="hsl(228.5, 77.2%, 51.5%)" stroke-width="1.5"></path><path d="M254.98 489.73L254.98 489.73" stroke="hsl(228.5, 77.2%, 51.5%)" stroke-width="1.5"></path><path d="M191.21 666.97L191.21 666.97" stroke="hsl(228.5, 77.2%, 51.5%)" stroke-width="1.5"></path><path d="M543.16 503.78L543.16 503.78" stroke="hsl(228.5, 77.2%, 51.5%)" stroke-width="1.5"></path><path d="M543.16 503.78L640.48 530.47" stroke="hsl(228.5, 77.2%, 51.5%)" stroke-width="1.5"></path><path d="M515.27 670.71L515.27 670.71" stroke="hsl(228.5, 77.2%, 51.5%)" stroke-width="1.5"></path><path d="M699.88 389.08L699.88 389.08" stroke="hsl(228.5, 77.2%, 51.5%)" stroke-width="1.5"></path><path d="M699.88 389.08L640.48 530.47" stroke="hsl(228.5, 77.2%, 51.5%)" stroke-width="1.5"></path><path d="M699.88 389.08L795.5 525.11" stroke="hsl(228.5, 77.2%, 51.5%)" stroke-width="1.5"></path><path d="M699.88 389.08L543.16 503.78" stroke="hsl(228.5, 77.2%, 51.5%)" stroke-width="1.5"></path><path d="M699.88 389.08L671.98 656.86" stroke="hsl(228.5, 77.2%, 51.5%)" stroke-width="1.5"></path><path d="M640.48 530.47L640.48 530.47" stroke="hsl(228.5, 77.2%, 51.5%)" stroke-width="1.5"></path><path d="M671.98 656.86L671.98 656.86" stroke="hsl(228.5, 77.2%, 51.5%)" stroke-width="1.5"></path><path d="M671.98 656.86L640.48 530.47" stroke="hsl(228.5, 77.2%, 51.5%)" stroke-width="1.5"></path><path d="M671.98 656.86L515.27 670.71" stroke="hsl(228.5, 77.2%, 51.5%)" stroke-width="1.5"></path><path d="M671.98 656.86L835.61 691.4" stroke="hsl(228.5, 77.2%, 51.5%)" stroke-width="1.5"></path><path d="M795.5 525.11L795.5 525.11" stroke="hsl(228.5, 77.2%, 51.5%)" stroke-width="1.5"></path><path d="M795.5 525.11L640.48 530.47" stroke="hsl(228.5, 77.2%, 51.5%)" stroke-width="1.5"></path><path d="M795.5 525.11L835.61 691.4" stroke="hsl(228.5, 77.2%, 51.5%)" stroke-width="1.5"></path><path d="M795.5 525.11L671.98 656.86" stroke="hsl(228.5, 77.2%, 51.5%)" stroke-width="1.5"></path><path d="M835.61 691.4L835.61 691.4" stroke="hsl(228.5, 77.2%, 51.5%)" stroke-width="1.5"></path><path d="M835.61 691.4L952 495.2" stroke="hsl(228.5, 77.2%, 51.5%)" stroke-width="1.5"></path><path d="M1000.27 375.44L1000.27 375.44" stroke="hsl(228.5, 77.2%, 51.5%)" stroke-width="1.5"></path><path d="M1000.27 375.44L1112.14 343.46" stroke="hsl(228.5, 77.2%, 51.5%)" stroke-width="1.5"></path><path d="M1000.27 375.44L1111.96 219.73" stroke="hsl(228.5, 77.2%, 51.5%)" stroke-width="1.5"></path><path d="M1000.27 375.44L1109.19 551.59" stroke="hsl(228.5, 77.2%, 51.5%)" stroke-width="1.5"></path><path d="M1111.96 219.73L1111.96 219.73" stroke="hsl(228.5, 77.2%, 51.5%)" stroke-width="1.5"></path><path d="M1111.96 219.73L1112.14 343.46" stroke="hsl(228.5, 77.2%, 51.5%)" stroke-width="1.5"></path><path d="M1111.96 219.73L1246.92 235.14" stroke="hsl(228.5, 77.2%, 51.5%)" stroke-width="1.5"></path><path d="M1112.14 343.46L1112.14 343.46" stroke="hsl(228.5, 77.2%, 51.5%)" stroke-width="1.5"></path><path d="M1112.14 343.46L1246.92 235.14" stroke="hsl(228.5, 77.2%, 51.5%)" stroke-width="1.5"></path><path d="M1112.14 343.46L1109.19 551.59" stroke="hsl(228.5, 77.2%, 51.5%)" stroke-width="1.5"></path><path d="M1100.76 706.64L1100.76 706.64" stroke="hsl(228.5, 77.2%, 51.5%)" stroke-width="1.5"></path><path d="M1100.76 706.64L1305.9 708.5" stroke="hsl(228.5, 77.2%, 51.5%)" stroke-width="1.5"></path><path d="M1100.76 706.64L1251.85 545.37" stroke="hsl(228.5, 77.2%, 51.5%)" stroke-width="1.5"></path><path d="M1100.76 706.64L952 495.2" stroke="hsl(228.5, 77.2%, 51.5%)" stroke-width="1.5"></path><path d="M1100.76 706.64L835.61 691.4" stroke="hsl(228.5, 77.2%, 51.5%)" stroke-width="1.5"></path><path d="M1300.01 -69.19L1300.01 -69.19" stroke="hsl(228.5, 77.2%, 51.5%)" stroke-width="1.5"></path><path d="M1300.01 -69.19L1444.35 -74.94" stroke="hsl(228.5, 77.2%, 51.5%)" stroke-width="1.5"></path><path d="M1300.01 -69.19L1547.5 -79.8" stroke="hsl(228.5, 77.2%, 51.5%)" stroke-width="1.5"></path><path d="M1300.01 -69.19L1546.24 41.8" stroke="hsl(228.5, 77.2%, 51.5%)" stroke-width="1.5"></path><path d="M1300.01 -69.19L1417.7 200.77" stroke="hsl(228.5, 77.2%, 51.5%)" stroke-width="1.5"></path><path d="M1300.01 -69.19L1246.92 235.14" stroke="hsl(228.5, 77.2%, 51.5%)" stroke-width="1.5"></path><path d="M1246.92 235.14L1246.92 235.14" stroke="hsl(228.5, 77.2%, 51.5%)" stroke-width="1.5"></path><path d="M1246.92 235.14L1417.7 200.77" stroke="hsl(228.5, 77.2%, 51.5%)" stroke-width="1.5"></path><path d="M1246.92 235.14L1455.58 347.13" stroke="hsl(228.5, 77.2%, 51.5%)" stroke-width="1.5"></path><path d="M1246.92 235.14L1438.6 55.94" stroke="hsl(228.5, 77.2%, 51.5%)" stroke-width="1.5"></path><path d="M1251.85 545.37L1251.85 545.37" stroke="hsl(228.5, 77.2%, 51.5%)" stroke-width="1.5"></path><path d="M1251.85 545.37L1411.73 506.37" stroke="hsl(228.5, 77.2%, 51.5%)" stroke-width="1.5"></path><path d="M1305.9 708.5L1305.9 708.5" stroke="hsl(228.5, 77.2%, 51.5%)" stroke-width="1.5"></path><path d="M1305.9 708.5L1405.92 643.23" stroke="hsl(228.5, 77.2%, 51.5%)" stroke-width="1.5"></path><path d="M1305.9 708.5L1251.85 545.37" stroke="hsl(228.5, 77.2%, 51.5%)" stroke-width="1.5"></path><path d="M1305.9 708.5L1411.73 506.37" stroke="hsl(228.5, 77.2%, 51.5%)" stroke-width="1.5"></path><path d="M1305.9 708.5L1109.19 551.59" stroke="hsl(228.5, 77.2%, 51.5%)" stroke-width="1.5"></path><path d="M1305.9 708.5L1564.61 647.62" stroke="hsl(228.5, 77.2%, 51.5%)" stroke-width="1.5"></path><path d="M1444.35 -74.94L1444.35 -74.94" stroke="hsl(228.5, 77.2%, 51.5%)" stroke-width="1.5"></path><path d="M1444.35 -74.94L1547.5 -79.8" stroke="hsl(228.5, 77.2%, 51.5%)" stroke-width="1.5"></path><path d="M1444.35 -74.94L1546.24 41.8" stroke="hsl(228.5, 77.2%, 51.5%)" stroke-width="1.5"></path><path d="M1444.35 -74.94L1417.7 200.77" stroke="hsl(228.5, 77.2%, 51.5%)" stroke-width="1.5"></path><path d="M1417.7 200.77L1417.7 200.77" stroke="hsl(228.5, 77.2%, 51.5%)" stroke-width="1.5"></path><path d="M1417.7 200.77L1584.47 189.57" stroke="hsl(228.5, 77.2%, 51.5%)" stroke-width="1.5"></path><path d="M1411.73 506.37L1411.73 506.37" stroke="hsl(228.5, 77.2%, 51.5%)" stroke-width="1.5"></path><path d="M1411.73 506.37L1405.92 643.23" stroke="hsl(228.5, 77.2%, 51.5%)" stroke-width="1.5"></path><path d="M1405.92 643.23L1405.92 643.23" stroke="hsl(228.5, 77.2%, 51.5%)" stroke-width="1.5"></path><path d="M1405.92 643.23L1564.61 647.62" stroke="hsl(228.5, 77.2%, 51.5%)" stroke-width="1.5"></path><path d="M1405.92 643.23L1251.85 545.37" stroke="hsl(228.5, 77.2%, 51.5%)" stroke-width="1.5"></path><path d="M1405.92 643.23L1455.58 347.13" stroke="hsl(228.5, 77.2%, 51.5%)" stroke-width="1.5"></path><path d="M1405.92 643.23L1109.19 551.59" stroke="hsl(228.5, 77.2%, 51.5%)" stroke-width="1.5"></path><path d="M1547.5 -79.8L1547.5 -79.8" stroke="hsl(228.5, 77.2%, 51.5%)" stroke-width="1.5"></path><path d="M1547.5 -79.8L1546.24 41.8" stroke="hsl(228.5, 77.2%, 51.5%)" stroke-width="1.5"></path><path d="M1546.24 41.8L1546.24 41.8" stroke="hsl(228.5, 77.2%, 51.5%)" stroke-width="1.5"></path><path d="M1546.24 41.8L1584.47 189.57" stroke="hsl(228.5, 77.2%, 51.5%)" stroke-width="1.5"></path><path d="M1584.47 189.57L1584.47 189.57" stroke="hsl(228.5, 77.2%, 51.5%)" stroke-width="1.5"></path><path d="M1578.25 384.34L1578.25 384.34" stroke="hsl(228.5, 77.2%, 51.5%)" stroke-width="1.5"></path><path d="M1578.25 384.34L1584.47 189.57" stroke="hsl(228.5, 77.2%, 51.5%)" stroke-width="1.5"></path><path d="M1578.25 384.34L1411.73 506.37" stroke="hsl(228.5, 77.2%, 51.5%)" stroke-width="1.5"></path><path d="M1564.61 647.62L1564.61 647.62" stroke="hsl(228.5, 77.2%, 51.5%)" stroke-width="1.5"></path><path d="M1564.61 647.62L1411.73 506.37" stroke="hsl(228.5, 77.2%, 51.5%)" stroke-width="1.5"></path><path d="M1564.61 647.62L1578.25 384.34" stroke="hsl(228.5, 77.2%, 51.5%)" stroke-width="1.5"></path><circle r="25" cx="-90.35" cy="654.27" fill="url(&quot;#SvgjsRadialGradient1023&quot;)"></circle><circle r="25" cx="77.53" cy="682.85" fill="url(&quot;#SvgjsRadialGradient1023&quot;)"></circle><circle r="25" cx="400.37" cy="551.43" fill="url(&quot;#SvgjsRadialGradient1023&quot;)"></circle><circle r="25" cx="412.22" cy="670.65" fill="url(&quot;#SvgjsRadialGradient1023&quot;)"></circle><circle r="25" cx="844.61" cy="337.99" fill="url(&quot;#SvgjsRadialGradient1023&quot;)"></circle><circle r="25" cx="952" cy="495.2" fill="url(&quot;#SvgjsRadialGradient1023&quot;)"></circle><circle r="25" cx="1109.19" cy="551.59" fill="url(&quot;#SvgjsRadialGradient1023&quot;)"></circle><circle r="25" cx="1258.99" cy="338.02" fill="url(&quot;#SvgjsRadialGradient1023&quot;)"></circle><circle r="25" cx="1438.6" cy="55.94" fill="url(&quot;#SvgjsRadialGradient1023&quot;)"></circle><circle r="25" cx="1455.58" cy="347.13" fill="url(&quot;#SvgjsRadialGradient1023&quot;)"></circle><circle r="5" cx="-94.55" cy="509.99" fill="#8b9ad9"></circle><circle r="5" cx="108.71" cy="511.03" fill="#8b9ad9"></circle><circle r="5" cx="254.98" cy="489.73" fill="#8b9ad9"></circle><circle r="5" cx="191.21" cy="666.97" fill="#8b9ad9"></circle><circle r="5" cx="543.16" cy="503.78" fill="#8b9ad9"></circle><circle r="5" cx="515.27" cy="670.71" fill="#8b9ad9"></circle><circle r="5" cx="699.88" cy="389.08" fill="#8b9ad9"></circle><circle r="5" cx="640.48" cy="530.47" fill="#8b9ad9"></circle><circle r="5" cx="671.98" cy="656.86" fill="#8b9ad9"></circle><circle r="5" cx="795.5" cy="525.11" fill="#8b9ad9"></circle><circle r="5" cx="835.61" cy="691.4" fill="#8b9ad9"></circle><circle r="5" cx="1000.27" cy="375.44" fill="#8b9ad9"></circle><circle r="5" cx="1111.96" cy="219.73" fill="#8b9ad9"></circle><circle r="5" cx="1112.14" cy="343.46" fill="#8b9ad9"></circle><circle r="5" cx="1100.76" cy="706.64" fill="#8b9ad9"></circle><circle r="5" cx="1300.01" cy="-69.19" fill="#8b9ad9"></circle><circle r="5" cx="1246.92" cy="235.14" fill="#8b9ad9"></circle><circle r="5" cx="1251.85" cy="545.37" fill="#8b9ad9"></circle><circle r="5" cx="1305.9" cy="708.5" fill="#8b9ad9"></circle><circle r="5" cx="1444.35" cy="-74.94" fill="#8b9ad9"></circle><circle r="5" cx="1417.7" cy="200.77" fill="#8b9ad9"></circle><circle r="5" cx="1411.73" cy="506.37" fill="#8b9ad9"></circle><circle r="5" cx="1405.92" cy="643.23" fill="#8b9ad9"></circle><circle r="5" cx="1547.5" cy="-79.8" fill="#8b9ad9"></circle><circle r="5" cx="1546.24" cy="41.8" fill="#8b9ad9"></circle><circle r="5" cx="1584.47" cy="189.57" fill="#8b9ad9"></circle><circle r="5" cx="1578.25" cy="384.34" fill="#8b9ad9"></circle><circle r="5" cx="1564.61" cy="647.62" fill="#8b9ad9"></circle></g><defs><mask id="SvgjsMask1022"><rect width="1440" height="560" fill="#ffffff"></rect></mask><radialGradient id="SvgjsRadialGradient1023"><stop stop-color="#ffffff" offset="0.1"></stop><stop stop-color="#1735b3" offset="0.2"></stop><stop stop-color="rgba(23, 53, 179, 0)" offset="1"></stop></radialGradient></defs></svg>